<?xml version="1.0" ?>
<!-- Uploaded to: SVG Repo, www.svgrepo.com, Generator: SVG Repo Mixer Tools -->
<svg width="800px" height="800px" viewBox="0 0 50 50" id="Message_And_Communication_Icons" version="1.1" xml:space="preserve" xmlns="http://www.w3.org/2000/svg" xmlns:xlink="http://www.w3.org/1999/xlink">
<g>
<g>
<g>
<g>
<path d="M31.5,20.1l-0.8-0.9c1.6-1.3,3.6-2,5.6-2v1.2C34.6,18.3,32.9,18.9,31.5,20.1z" style="fill:#0D5FC3;"/>
</g>
</g>
<g>
<g>
<path d="M30,23.4L28.9,23c0.3-0.7,0.7-1.4,1.2-2l0.9,0.8C30.6,22.3,30.3,22.8,30,23.4z" style="fill:#4DE0F9;"/>
</g>
</g>
<g>
<g>
<path d="M29.3,22.9l-1.1-0.5c0.3-0.7,0.7-1.4,1.2-2l0.9,0.8C30,21.7,29.6,22.3,29.3,22.9z" style="fill:#0D5FC3;"/>
</g>
</g>
<g>
<g>
<g>
<path d="M33.3,16.8c0.4,0,0.7-0.1,1.1-0.1c0.3,0,0.5,0,0.8,0c-1.2-1.8-2.9-3.2-4.8-4.1       C31.6,13.8,32.6,15.2,33.3,16.8z" style="fill:#4DE0F9;"/>
</g>
</g>
<g>
<g>
<path d="M40.4,19.3c1.4,1.5,2.3,3.5,2.3,5.7c0,1.1-0.2,2.2-0.6,3.1h-6.4v2h9.4c0.4-1,0.6-2,0.6-3.1       C45.7,23.5,43.5,20.5,40.4,19.3z" style="fill:#4DE0F9;"/>
</g>
</g>
</g>
<g>
<g>
<path d="M44.5,29.7h-7.4v-1.2h6.6c0.3-0.8,0.4-1.7,0.4-2.5c0-4.2-3.5-7.7-7.7-7.7c-0.3,0-0.6,0-1,0.1      l-0.5,0.1L34.7,18c-1.8-4.2-5.9-6.9-10.4-6.9c-5.6,0-10.4,4.2-11.2,9.7l-0.1,0.5l-0.5,0c-3.2,0.2-5.7,2.9-5.7,6.2      c0,0.3,0,0.7,0.1,1h6.9v1.2H6l-0.1-0.5c-0.1-0.6-0.2-1.2-0.2-1.7c0-3.7,2.8-6.8,6.4-7.3C13.1,14.3,18.3,10,24.4,10      c4.9,0,9.3,2.8,11.3,7.2c0.3,0,0.5,0,0.7,0c4.9,0,8.9,4,8.9,8.9c0,1.2-0.2,2.3-0.7,3.3L44.5,29.7z" style="fill:#0D5FC3;"/>
</g>
</g>
</g>
<g>
<g>
<g>
<polygon points="33.3,27 33.3,37.4 25.5,37.4 25.5,39.4 36.3,39.4 36.3,27     " style="fill:#4DE0F9;"/>
</g>
</g>
<g>
<g>
<path d="M35.9,39H15.1V25.4h20.7V39z M16.3,37.8h18.3V26.6H16.3V37.8z" style="fill:#0D5FC3;"/>
</g>
</g>
<g>
<g>
<polygon points="25.5,33 15.4,26.5 16.1,25.5 25.5,31.5 34.9,25.5 35.6,26.5     " style="fill:#0D5FC3;"/>
</g>
</g>
</g>
</g>
</svg>